<?xml version="1.0" encoding="utf-8"?>
<!-- Generator: Adobe Illustrator 18.1.1, SVG Export Plug-In . SVG Version: 6.00 Build 0)  -->
<svg version="1.1" xmlns="http://www.w3.org/2000/svg" xmlns:xlink="http://www.w3.org/1999/xlink" x="0px" y="0px"
	 viewBox="0 0 195 195" enable-background="new 0 0 195 195" xml:space="preserve">
<g id="Layer_4">
	<path fill="#B3B3B3" d="M62.1,147.5h-9.5c0,15.2,0,34,0,34H38.4c0,0,0-18.6,0-34h-6.7v-12h6.7v-7.8c0-5.6,2.6-14.3,14.2-14.3
		l10.5,0v11.7c0,0-6.4,0-7.6,0c-1.2,0-3,0.6-3,3.3v7.1h10.8L62.1,147.5z"/>
	<path fill="#B3B3B3" d="M172,135c0,0.5,0,1.1,0,1.6c0,16.7-12.7,35.9-35.9,35.9c-7.1,0-13.8-2.1-19.4-5.7c1,0.1,2,0.2,3,0.2
		c5.9,0,11.4-2,15.7-5.4c-5.5-0.1-10.2-3.8-11.8-8.8c0.8,0.1,1.6,0.2,2.4,0.2c1.2,0,2.3-0.2,3.3-0.4c-5.8-1.2-10.1-6.3-10.1-12.4
		c0-0.1,0-0.1,0-0.2c1.7,0.9,3.7,1.5,5.7,1.6c-3.4-2.3-5.6-6.1-5.6-10.5c0-2.3,0.6-4.5,1.7-6.3c6.2,7.6,15.5,12.7,26,13.2
		c-0.2-0.9-0.3-1.9-0.3-2.9c0-7,5.7-12.6,12.6-12.6c3.6,0,6.9,1.5,9.2,4c2.9-0.6,5.6-1.6,8-3.1c-0.9,3-2.9,5.4-5.6,7
		c2.6-0.3,5-1,7.2-2C176.6,131,174.4,133.2,172,135z"/>
	<g>
		<path fill="#B3B3B3" d="M166,85.1l-18.5-11.6L129,85.1V30c0-4.7,3.8-8.5,8.5-8.5h20c4.7,0,8.5,3.8,8.5,8.5V85.1z M147.5,67.7
			l13.5,8.4V30c0-1.9-1.6-3.5-3.5-3.5h-20c-1.9,0-3.5,1.6-3.5,3.5v46.1L147.5,67.7z"/>
	</g>
	<path fill="#B3B3B3" d="M73.8,65H56v-5h17.8c3.6,0,6.5-2.9,6.5-6.5S77.3,47,73.8,47h-1.5c-1.4,0-2.5-1.1-2.5-2.5
		c0-0.3,0.1-0.6,0.2-0.9c0-0.3,0.1-0.7,0.1-1.1c0-3.6-2.9-6.5-6.5-6.5h-3.7c-1.4,0-2.5-1.1-2.5-2.5c0-0.7,0.3-1.3,0.7-1.8v-0.4
		c0-3.4-3.3-6.4-7.1-6.4h-5.4c-3.6,0-6.5,2.8-6.5,6.4v1c0,0.1,0,0.2,0,0.3c0.1,0.2,0.1,0.5,0.1,0.8c0,1.4-1.1,2.5-2.5,2.5h-5.1
		c-3.6,0-6.5,2.9-6.5,6.5c0,0.4,0,0.8,0.1,1.1c0.1,0.3,0.2,0.6,0.2,0.9c0,1.4-1.1,2.5-2.5,2.5h-1.5c-3.6,0-6.5,2.9-6.5,6.5
		s2.9,6.5,6.5,6.5H39v5H21.2c-6.3,0-11.5-5.2-11.5-11.5c0-5.9,4.5-10.8,10.3-11.4C20.3,35.9,25.3,31,31.5,31H34
		c0.2-6.1,5.3-11,11.5-11h5.4c6.4,0,11.9,5,12.1,11h0.5c6.2,0,11.3,4.9,11.5,11.1c5.8,0.6,10.3,5.5,10.3,11.4
		C85.3,59.8,80.1,65,73.8,65z"/>
	<polygon fill="#B3B3B3" points="52,71 52,50 43,50 43,71 35.4,71 47.5,84 59.6,71 	"/>
</g>
<g id="Guides">
</g>
</svg>
